<svg width="187" height="187" viewBox="0 0 187 187" fill="none" xmlns="http://www.w3.org/2000/svg">
<circle cx="93.1231" cy="93.0513" r="91.5513" stroke="#A2AACA" stroke-width="3"/>
<path d="M92.9147 105.761C101.196 105.761 107.909 99.0126 107.909 90.6884C107.909 82.3648 101.196 75.6166 92.9147 75.6166C84.6386 75.6166 77.9248 82.3648 77.9248 90.6884C77.9248 99.0126 84.6386 105.761 92.9147 105.761Z" fill="#A2AACA"/>
<path d="M76.4295 55.2964L56.7379 7.00757C33.7355 16.6019 16.668 34.5722 7.50244 56.0503L45.6971 73.2968C50.4819 75.4414 56.1039 73.876 59.0753 69.5285C63.2537 63.3834 69.166 58.369 76.4295 55.2964Z" fill="#3077FF"/>
<path d="M57.036 6.8964C56.9217 6.92539 56.8337 6.98338 56.7456 7.0413L76.4373 55.3303C76.5516 55.3015 76.6396 55.2439 76.7233 55.1857C87.2444 50.8376 98.6069 51.4462 108.409 55.8526L128.442 7.67905C106.391 -1.88607 80.8173 -2.92951 57.036 6.8964Z" fill="#30E0A1"/>
<path d="M108.606 55.9387C115.64 59.1559 121.842 64.3443 126.334 71.1558C129.163 75.4168 134.667 76.924 139.389 74.9816L178.336 58.9243C168.598 35.0116 150.321 17.2727 128.639 7.76562L108.606 55.9387Z" fill="#8146FF"/>
<path d="M100.955 92.4587L91.9054 82.6395L142.146 44.994L100.955 92.4587Z" fill="#A2AACA" stroke="#A2AACA"/>
</svg>
